<?xml version="1.0" encoding="UTF-8"?>
<svg id="_レイヤー_2" data-name="レイヤー 2" xmlns="http://www.w3.org/2000/svg" viewBox="0 0 375 375">
  <defs>
    <style>
      .cls-1 {
        stroke-width: 0px;
      }
    </style>
  </defs>
  <g id="_レイヤー_1-2" data-name="レイヤー 1">
    <g>
      <circle class="cls-1" cx="187.5" cy="187.5" r="187"/>
      <path class="cls-1" d="m187.5,1c25.18,0,49.6,4.93,72.59,14.66,22.21,9.39,42.15,22.84,59.28,39.97,17.13,17.13,30.58,37.07,39.97,59.28,9.72,22.99,14.66,47.42,14.66,72.59s-4.93,49.6-14.66,72.59c-9.39,22.21-22.84,42.15-39.97,59.28-17.13,17.13-37.07,30.58-59.28,39.97-22.99,9.72-47.42,14.66-72.59,14.66s-49.6-4.93-72.59-14.66c-22.21-9.39-42.15-22.84-59.28-39.97-17.13-17.13-30.58-37.07-39.97-59.28C5.93,237.1,1,212.68,1,187.5s4.93-49.6,14.66-72.59c9.39-22.21,22.84-42.15,39.97-59.28,17.13-17.13,37.07-30.58,59.28-39.97C137.9,5.93,162.32,1,187.5,1m0-1C83.95,0,0,83.95,0,187.5s83.95,187.5,187.5,187.5,187.5-83.95,187.5-187.5S291.05,0,187.5,0h0Z"/>
    </g>
  </g>
</svg>